<svg xmlns="http://www.w3.org/2000/svg" width="28.412" height="19.857" viewBox="0 0 28.412 19.857">
  <path id="Icon_simple-youtube" data-name="Icon simple-youtube" d="M27.826,8.49a3.561,3.561,0,0,0-2.473-2.473c-2.215-.593-11.127-.593-11.127-.593S5.335,5.412,3.1,6.017A3.561,3.561,0,0,0,.626,8.49a37,37,0,0,0-.618,6.875,37,37,0,0,0,.618,6.849A3.561,3.561,0,0,0,3.1,24.686c2.212.594,11.127.594,11.127.594s8.889,0,11.127-.594a3.561,3.561,0,0,0,2.473-2.473,37,37,0,0,0,.592-6.849,37,37,0,0,0-.592-6.875ZM11.381,19.617V11.1L18.8,15.365Z" transform="translate(-0.007 -5.424)" fill="#2e606f"/>
</svg>
