<svg xmlns="http://www.w3.org/2000/svg" width="28.422" height="28.422" viewBox="0 0 28.422 28.422">
  <path id="Icon_simple-instagram" data-name="Icon simple-instagram" d="M14.211,0C10.35,0,9.868.018,8.353.085A10.479,10.479,0,0,0,4.9.746,6.959,6.959,0,0,0,2.385,2.385,6.934,6.934,0,0,0,.746,4.9a10.448,10.448,0,0,0-.661,3.45C.014,9.868,0,10.35,0,14.211s.018,4.343.085,5.859a10.485,10.485,0,0,0,.661,3.45,6.969,6.969,0,0,0,1.639,2.518A6.949,6.949,0,0,0,4.9,27.676a10.492,10.492,0,0,0,3.45.661c1.516.071,2,.085,5.859.085s4.343-.018,5.859-.085a10.516,10.516,0,0,0,3.45-.661,7.263,7.263,0,0,0,4.157-4.157,10.485,10.485,0,0,0,.661-3.45c.071-1.516.085-2,.085-5.859s-.018-4.343-.085-5.859a10.51,10.51,0,0,0-.661-3.45,6.975,6.975,0,0,0-1.639-2.518A6.924,6.924,0,0,0,23.52.746,10.455,10.455,0,0,0,20.07.085C18.554.014,18.072,0,14.211,0Zm0,2.558c3.793,0,4.246.019,5.744.084a7.83,7.83,0,0,1,2.637.491,4.677,4.677,0,0,1,2.7,2.7,7.846,7.846,0,0,1,.489,2.637c.068,1.5.083,1.949.083,5.744s-.018,4.246-.088,5.744a8,8,0,0,1-.5,2.637,4.512,4.512,0,0,1-1.065,1.637,4.434,4.434,0,0,1-1.634,1.061,7.9,7.9,0,0,1-2.647.489c-1.509.068-1.953.083-5.754.083s-4.247-.018-5.754-.088a8.058,8.058,0,0,1-2.648-.5A4.4,4.4,0,0,1,4.14,24.211a4.315,4.315,0,0,1-1.066-1.634,8.065,8.065,0,0,1-.5-2.647c-.053-1.492-.072-1.953-.072-5.737s.019-4.247.072-5.757a8.056,8.056,0,0,1,.5-2.646A4.213,4.213,0,0,1,4.14,4.156,4.2,4.2,0,0,1,5.773,3.092a7.866,7.866,0,0,1,2.63-.5c1.51-.053,1.954-.071,5.754-.071l.053.036Zm0,4.356a7.3,7.3,0,1,0,7.3,7.3A7.3,7.3,0,0,0,14.211,6.914Zm0,12.035a4.737,4.737,0,1,1,4.737-4.737A4.736,4.736,0,0,1,14.211,18.948ZM23.5,6.626a1.705,1.705,0,1,1-1.705-1.7A1.707,1.707,0,0,1,23.5,6.626Z" fill="#2e606f"/>
</svg>
